<mxfile host="app.diagrams.net" modified="2023-12-18T00:53:11.169Z" agent="Mozilla/5.0 (Windows NT 10.0; Win64; x64; rv:120.0) Gecko/20100101 Firefox/120.0" etag="uludSR4Kw3MjCBsUSJIJ" version="21.3.2" type="github">
  <diagram name="Page-1" id="HJtw8TuJaZLdFWCIEzNT">
    <mxGraphModel dx="794" dy="432" grid="1" gridSize="10" guides="1" tooltips="1" connect="1" arrows="1" fold="1" page="1" pageScale="1" pageWidth="850" pageHeight="1100" math="0" shadow="0">
      <root>
        <mxCell id="0" />
        <mxCell id="1" parent="0" />
        <mxCell id="TWOqxrJESDVWE0K2RaTB-1" value="" style="edgeStyle=orthogonalEdgeStyle;rounded=0;orthogonalLoop=1;jettySize=auto;html=1;" edge="1" parent="1" source="TWOqxrJESDVWE0K2RaTB-2" target="TWOqxrJESDVWE0K2RaTB-5">
          <mxGeometry relative="1" as="geometry" />
        </mxCell>
        <mxCell id="TWOqxrJESDVWE0K2RaTB-2" value="Transformer" style="whiteSpace=wrap;html=1;" vertex="1" parent="1">
          <mxGeometry x="170" y="170" width="120" height="60" as="geometry" />
        </mxCell>
        <mxCell id="TWOqxrJESDVWE0K2RaTB-3" value="&lt;div&gt;MODEL_DIM = 32&lt;/div&gt;&lt;div&gt;MAX_LEN = 12&lt;/div&gt;&lt;div&gt;N_LAYER = 3&lt;/div&gt;&lt;div&gt;N_HEAD = 4&lt;/div&gt;&lt;div&gt;DROP_RATE = 0.1&lt;/div&gt;" style="text;html=1;align=center;verticalAlign=middle;resizable=0;points=[];autosize=1;strokeColor=none;fillColor=none;" vertex="1" parent="1">
          <mxGeometry x="235" y="38" width="130" height="90" as="geometry" />
        </mxCell>
        <mxCell id="TWOqxrJESDVWE0K2RaTB-4" value="" style="edgeStyle=orthogonalEdgeStyle;rounded=0;orthogonalLoop=1;jettySize=auto;html=1;" edge="1" parent="1" source="TWOqxrJESDVWE0K2RaTB-5" target="TWOqxrJESDVWE0K2RaTB-8">
          <mxGeometry relative="1" as="geometry" />
        </mxCell>
        <mxCell id="TWOqxrJESDVWE0K2RaTB-5" value="PositionEmbedding" style="whiteSpace=wrap;html=1;" vertex="1" parent="1">
          <mxGeometry x="170" y="310" width="120" height="60" as="geometry" />
        </mxCell>
        <mxCell id="TWOqxrJESDVWE0K2RaTB-6" value="" style="edgeStyle=orthogonalEdgeStyle;rounded=0;orthogonalLoop=1;jettySize=auto;html=1;" edge="1" parent="1" source="TWOqxrJESDVWE0K2RaTB-8" target="TWOqxrJESDVWE0K2RaTB-11">
          <mxGeometry relative="1" as="geometry" />
        </mxCell>
        <mxCell id="TWOqxrJESDVWE0K2RaTB-7" value="&#xa;&lt;span style=&quot;color: rgb(79, 193, 255); font-family: Consolas, &amp;quot;Courier New&amp;quot;, monospace; font-size: 14px; font-style: normal; font-variant-ligatures: normal; font-variant-caps: normal; font-weight: 400; letter-spacing: normal; orphans: 2; text-align: center; text-indent: 0px; text-transform: none; widows: 2; word-spacing: 0px; -webkit-text-stroke-width: 0px; background-color: rgb(31, 31, 31); text-decoration-thickness: initial; text-decoration-style: initial; text-decoration-color: initial; float: none; display: inline !important;&quot;&gt;N_LAYER&lt;/span&gt;&#xa;&#xa;" style="edgeStyle=orthogonalEdgeStyle;rounded=0;orthogonalLoop=1;jettySize=auto;html=1;" edge="1" parent="1" source="TWOqxrJESDVWE0K2RaTB-8" target="TWOqxrJESDVWE0K2RaTB-20">
          <mxGeometry relative="1" as="geometry" />
        </mxCell>
        <mxCell id="TWOqxrJESDVWE0K2RaTB-8" value="Encoder" style="whiteSpace=wrap;html=1;" vertex="1" parent="1">
          <mxGeometry x="170" y="450" width="120" height="60" as="geometry" />
        </mxCell>
        <mxCell id="TWOqxrJESDVWE0K2RaTB-9" value="" style="edgeStyle=orthogonalEdgeStyle;rounded=0;orthogonalLoop=1;jettySize=auto;html=1;" edge="1" parent="1" source="TWOqxrJESDVWE0K2RaTB-11" target="TWOqxrJESDVWE0K2RaTB-13">
          <mxGeometry relative="1" as="geometry" />
        </mxCell>
        <mxCell id="TWOqxrJESDVWE0K2RaTB-10" value="&#xa;&lt;span style=&quot;color: rgb(79, 193, 255); font-family: Consolas, &amp;quot;Courier New&amp;quot;, monospace; font-size: 14px; font-style: normal; font-variant-ligatures: normal; font-variant-caps: normal; font-weight: 400; letter-spacing: normal; orphans: 2; text-align: center; text-indent: 0px; text-transform: none; widows: 2; word-spacing: 0px; -webkit-text-stroke-width: 0px; background-color: rgb(31, 31, 31); text-decoration-thickness: initial; text-decoration-style: initial; text-decoration-color: initial; float: none; display: inline !important;&quot;&gt;N_LAYER&lt;/span&gt;&#xa;&#xa;" style="edgeStyle=orthogonalEdgeStyle;rounded=0;orthogonalLoop=1;jettySize=auto;html=1;" edge="1" parent="1" source="TWOqxrJESDVWE0K2RaTB-11" target="TWOqxrJESDVWE0K2RaTB-23">
          <mxGeometry relative="1" as="geometry" />
        </mxCell>
        <mxCell id="TWOqxrJESDVWE0K2RaTB-11" value="Decoder" style="whiteSpace=wrap;html=1;" vertex="1" parent="1">
          <mxGeometry x="170" y="590" width="120" height="60" as="geometry" />
        </mxCell>
        <mxCell id="TWOqxrJESDVWE0K2RaTB-12" value="" style="edgeStyle=orthogonalEdgeStyle;rounded=0;orthogonalLoop=1;jettySize=auto;html=1;" edge="1" parent="1" source="TWOqxrJESDVWE0K2RaTB-13" target="TWOqxrJESDVWE0K2RaTB-15">
          <mxGeometry relative="1" as="geometry" />
        </mxCell>
        <mxCell id="TWOqxrJESDVWE0K2RaTB-13" value="Dense(num_word)" style="whiteSpace=wrap;html=1;" vertex="1" parent="1">
          <mxGeometry x="170" y="730" width="120" height="60" as="geometry" />
        </mxCell>
        <mxCell id="TWOqxrJESDVWE0K2RaTB-14" value="" style="edgeStyle=orthogonalEdgeStyle;rounded=0;orthogonalLoop=1;jettySize=auto;html=1;" edge="1" parent="1" source="TWOqxrJESDVWE0K2RaTB-15" target="TWOqxrJESDVWE0K2RaTB-16">
          <mxGeometry relative="1" as="geometry" />
        </mxCell>
        <mxCell id="TWOqxrJESDVWE0K2RaTB-15" value="SparseCategoricalCrossentropy" style="whiteSpace=wrap;html=1;" vertex="1" parent="1">
          <mxGeometry x="120" y="860" width="220" height="60" as="geometry" />
        </mxCell>
        <mxCell id="TWOqxrJESDVWE0K2RaTB-16" value="optimizers.Adam" style="whiteSpace=wrap;html=1;" vertex="1" parent="1">
          <mxGeometry x="170" y="1000" width="120" height="60" as="geometry" />
        </mxCell>
        <mxCell id="TWOqxrJESDVWE0K2RaTB-17" value="Give position meaning" style="text;html=1;align=center;verticalAlign=middle;resizable=0;points=[];autosize=1;strokeColor=none;fillColor=none;" vertex="1" parent="1">
          <mxGeometry x="240" y="268" width="140" height="30" as="geometry" />
        </mxCell>
        <mxCell id="TWOqxrJESDVWE0K2RaTB-18" value="Word dimension: 254&lt;br&gt;word in Sentance: 10&lt;br&gt;Batch: 1&lt;br&gt;Embedding shap: (1,10,254)" style="text;html=1;align=center;verticalAlign=middle;resizable=0;points=[];autosize=1;strokeColor=none;fillColor=none;" vertex="1" parent="1">
          <mxGeometry x="290" y="310" width="170" height="70" as="geometry" />
        </mxCell>
        <mxCell id="TWOqxrJESDVWE0K2RaTB-19" value="Init" style="edgeStyle=orthogonalEdgeStyle;rounded=0;orthogonalLoop=1;jettySize=auto;html=1;" edge="1" parent="1" source="TWOqxrJESDVWE0K2RaTB-20" target="TWOqxrJESDVWE0K2RaTB-21">
          <mxGeometry relative="1" as="geometry" />
        </mxCell>
        <mxCell id="TWOqxrJESDVWE0K2RaTB-20" value="&lt;div style=&quot;color: rgb(204, 204, 204); background-color: rgb(31, 31, 31); font-family: Consolas, &amp;quot;Courier New&amp;quot;, monospace; font-size: 14px; line-height: 19px;&quot;&gt;EncodeLayer&lt;/div&gt;" style="whiteSpace=wrap;html=1;" vertex="1" parent="1">
          <mxGeometry x="370" y="450" width="120" height="60" as="geometry" />
        </mxCell>
        <mxCell id="TWOqxrJESDVWE0K2RaTB-21" value="&lt;div style=&quot;color: rgb(204, 204, 204); background-color: rgb(31, 31, 31); font-family: Consolas, &amp;quot;Courier New&amp;quot;, monospace; font-size: 14px; line-height: 19px;&quot;&gt;LayerNormalization&lt;br&gt;&lt;div style=&quot;line-height: 19px;&quot;&gt;MultiHead&lt;/div&gt;&lt;div style=&quot;line-height: 19px;&quot;&gt;&lt;div style=&quot;line-height: 19px;&quot;&gt;PositionWiseFFN&lt;br&gt;&lt;div style=&quot;line-height: 19px;&quot;&gt;Dropout&lt;/div&gt;&lt;/div&gt;&lt;/div&gt;&lt;/div&gt;" style="whiteSpace=wrap;html=1;" vertex="1" parent="1">
          <mxGeometry x="580" y="435" width="200" height="90" as="geometry" />
        </mxCell>
        <mxCell id="TWOqxrJESDVWE0K2RaTB-22" value="Init" style="edgeStyle=orthogonalEdgeStyle;rounded=0;orthogonalLoop=1;jettySize=auto;html=1;entryX=0;entryY=0.5;entryDx=0;entryDy=0;" edge="1" parent="1" source="TWOqxrJESDVWE0K2RaTB-23" target="TWOqxrJESDVWE0K2RaTB-24">
          <mxGeometry relative="1" as="geometry" />
        </mxCell>
        <mxCell id="TWOqxrJESDVWE0K2RaTB-23" value="&lt;div style=&quot;color: rgb(204, 204, 204); background-color: rgb(31, 31, 31); font-family: Consolas, &amp;quot;Courier New&amp;quot;, monospace; font-size: 14px; line-height: 19px;&quot;&gt;DecoderLayer&lt;/div&gt;" style="whiteSpace=wrap;html=1;" vertex="1" parent="1">
          <mxGeometry x="370" y="590" width="120" height="60" as="geometry" />
        </mxCell>
        <mxCell id="TWOqxrJESDVWE0K2RaTB-24" value="&lt;div style=&quot;color: rgb(204, 204, 204); background-color: rgb(31, 31, 31); font-family: Consolas, &amp;quot;Courier New&amp;quot;, monospace; font-size: 14px; line-height: 19px;&quot;&gt;LayerNormalization&lt;br&gt;&lt;div style=&quot;line-height: 19px;&quot;&gt;MultiHead&lt;/div&gt;&lt;div style=&quot;line-height: 19px;&quot;&gt;&lt;div style=&quot;line-height: 19px;&quot;&gt;PositionWiseFFN&lt;br&gt;&lt;div style=&quot;line-height: 19px;&quot;&gt;Dropout&lt;/div&gt;&lt;/div&gt;&lt;/div&gt;&lt;/div&gt;" style="whiteSpace=wrap;html=1;" vertex="1" parent="1">
          <mxGeometry x="580" y="575" width="200" height="90" as="geometry" />
        </mxCell>
        <mxCell id="TWOqxrJESDVWE0K2RaTB-25" value="&lt;div style=&quot;color: rgb(204, 204, 204); background-color: rgb(31, 31, 31); font-family: Consolas, &amp;quot;Courier New&amp;quot;, monospace; font-size: 14px; line-height: 19px;&quot;&gt;&lt;div&gt;MODEL_DIM &lt;span style=&quot;color: #d4d4d4;&quot;&gt;=&lt;/span&gt; &lt;span style=&quot;color: #b5cea8;&quot;&gt;32&lt;/span&gt;&lt;/div&gt;&lt;div&gt;&lt;span style=&quot;color: #4fc1ff;&quot;&gt;MAX_LEN&lt;/span&gt; &lt;span style=&quot;color: #d4d4d4;&quot;&gt;=&lt;/span&gt; &lt;span style=&quot;color: #b5cea8;&quot;&gt;12&lt;/span&gt;&lt;/div&gt;&lt;div&gt;&lt;span style=&quot;color: #4fc1ff;&quot;&gt;N_LAYER&lt;/span&gt; &lt;span style=&quot;color: #d4d4d4;&quot;&gt;=&lt;/span&gt; &lt;span style=&quot;color: #b5cea8;&quot;&gt;3&lt;/span&gt;&lt;/div&gt;&lt;div&gt;&lt;span style=&quot;color: #4fc1ff;&quot;&gt;N_HEAD&lt;/span&gt; &lt;span style=&quot;color: #d4d4d4;&quot;&gt;=&lt;/span&gt; &lt;span style=&quot;color: #b5cea8;&quot;&gt;4&lt;/span&gt;&lt;/div&gt;&lt;div&gt;&lt;span style=&quot;color: #4fc1ff;&quot;&gt;DROP_RATE&lt;/span&gt; &lt;span style=&quot;color: #d4d4d4;&quot;&gt;=&lt;/span&gt; &lt;span style=&quot;color: #b5cea8;&quot;&gt;0.1&lt;/span&gt;&lt;/div&gt;&lt;/div&gt;" style="text;html=1;align=center;verticalAlign=middle;resizable=0;points=[];autosize=1;strokeColor=none;fillColor=none;" vertex="1" parent="1">
          <mxGeometry x="570" y="268" width="140" height="110" as="geometry" />
        </mxCell>
        <mxCell id="TWOqxrJESDVWE0K2RaTB-26" value="800" style="edgeStyle=orthogonalEdgeStyle;rounded=0;orthogonalLoop=1;jettySize=auto;html=1;" edge="1" parent="1" source="TWOqxrJESDVWE0K2RaTB-27" target="TWOqxrJESDVWE0K2RaTB-29">
          <mxGeometry relative="1" as="geometry" />
        </mxCell>
        <mxCell id="TWOqxrJESDVWE0K2RaTB-27" value="&lt;div style=&quot;color: rgb(204, 204, 204); background-color: rgb(31, 31, 31); font-family: Consolas, &amp;quot;Courier New&amp;quot;, monospace; font-size: 14px; line-height: 19px;&quot;&gt;train&lt;span style=&quot;&quot;&gt;(&lt;/span&gt;model&lt;span style=&quot;&quot;&gt;, &lt;/span&gt;&lt;span style=&quot;color: rgb(156, 220, 254);&quot;&gt;data&lt;/span&gt;, &lt;span style=&quot;color: rgb(156, 220, 254);&quot;&gt;step&lt;/span&gt;&lt;span style=&quot;color: rgb(212, 212, 212);&quot;&gt;=&lt;/span&gt;&lt;span style=&quot;color: rgb(181, 206, 168);&quot;&gt;800&lt;/span&gt;)&lt;br&gt;&lt;/div&gt;" style="whiteSpace=wrap;html=1;" vertex="1" parent="1">
          <mxGeometry x="1090" y="180" width="250" height="60" as="geometry" />
        </mxCell>
        <mxCell id="TWOqxrJESDVWE0K2RaTB-28" value="" style="edgeStyle=orthogonalEdgeStyle;rounded=0;orthogonalLoop=1;jettySize=auto;html=1;" edge="1" parent="1" source="TWOqxrJESDVWE0K2RaTB-29" target="TWOqxrJESDVWE0K2RaTB-31">
          <mxGeometry relative="1" as="geometry" />
        </mxCell>
        <mxCell id="TWOqxrJESDVWE0K2RaTB-29" value="&lt;div style=&quot;color: rgb(204, 204, 204); background-color: rgb(31, 31, 31); font-family: Consolas, &amp;quot;Courier New&amp;quot;, monospace; font-size: 14px; line-height: 19px;&quot;&gt;data.sample(&lt;span style=&quot;color: #b5cea8;&quot;&gt;64&lt;/span&gt;)&lt;/div&gt;" style="whiteSpace=wrap;html=1;" vertex="1" parent="1">
          <mxGeometry x="1155" y="320" width="120" height="60" as="geometry" />
        </mxCell>
        <mxCell id="TWOqxrJESDVWE0K2RaTB-30" value="" style="edgeStyle=orthogonalEdgeStyle;rounded=0;orthogonalLoop=1;jettySize=auto;html=1;" edge="1" parent="1" source="TWOqxrJESDVWE0K2RaTB-31" target="TWOqxrJESDVWE0K2RaTB-33">
          <mxGeometry relative="1" as="geometry" />
        </mxCell>
        <mxCell id="TWOqxrJESDVWE0K2RaTB-31" value="&lt;div style=&quot;color: rgb(204, 204, 204); background-color: rgb(31, 31, 31); font-family: Consolas, &amp;quot;Courier New&amp;quot;, monospace; font-size: 14px; line-height: 19px;&quot;&gt;model.step(&lt;span style=&quot;color: #9cdcfe;&quot;&gt;bx&lt;/span&gt;, &lt;span style=&quot;color: #9cdcfe;&quot;&gt;by&lt;/span&gt;)&lt;/div&gt;" style="whiteSpace=wrap;html=1;" vertex="1" parent="1">
          <mxGeometry x="1112.5" y="465" width="205" height="60" as="geometry" />
        </mxCell>
        <mxCell id="TWOqxrJESDVWE0K2RaTB-32" value="" style="edgeStyle=orthogonalEdgeStyle;rounded=0;orthogonalLoop=1;jettySize=auto;html=1;" edge="1" parent="1" source="TWOqxrJESDVWE0K2RaTB-33" target="TWOqxrJESDVWE0K2RaTB-35">
          <mxGeometry relative="1" as="geometry" />
        </mxCell>
        <mxCell id="TWOqxrJESDVWE0K2RaTB-33" value="&lt;span style=&quot;color: rgb(204, 204, 204); background-color: rgb(31, 31, 31); font-family: Consolas, &amp;quot;Courier New&amp;quot;, monospace; font-size: 14px;&quot;&gt;GradientTape&lt;/span&gt;" style="whiteSpace=wrap;html=1;" vertex="1" parent="1">
          <mxGeometry x="1440" y="465" width="120" height="60" as="geometry" />
        </mxCell>
        <mxCell id="TWOqxrJESDVWE0K2RaTB-34" value="" style="edgeStyle=orthogonalEdgeStyle;rounded=0;orthogonalLoop=1;jettySize=auto;html=1;" edge="1" parent="1" source="TWOqxrJESDVWE0K2RaTB-35" target="TWOqxrJESDVWE0K2RaTB-37">
          <mxGeometry relative="1" as="geometry" />
        </mxCell>
        <mxCell id="TWOqxrJESDVWE0K2RaTB-35" value="&lt;span style=&quot;background-color: rgb(31, 31, 31); font-family: Consolas, &amp;quot;Courier New&amp;quot;, monospace; font-size: 14px; color: rgb(156, 220, 254);&quot;&gt;Logits = self&lt;/span&gt;&lt;span style=&quot;background-color: rgb(31, 31, 31); color: rgb(204, 204, 204); font-family: Consolas, &amp;quot;Courier New&amp;quot;, monospace; font-size: 14px;&quot;&gt;.&lt;/span&gt;&lt;span style=&quot;background-color: rgb(31, 31, 31); font-family: Consolas, &amp;quot;Courier New&amp;quot;, monospace; font-size: 14px; color: rgb(220, 220, 170);&quot;&gt;call&lt;/span&gt;&lt;span style=&quot;background-color: rgb(31, 31, 31); color: rgb(204, 204, 204); font-family: Consolas, &amp;quot;Courier New&amp;quot;, monospace; font-size: 14px;&quot;&gt;(&lt;/span&gt;&lt;span style=&quot;background-color: rgb(31, 31, 31); font-family: Consolas, &amp;quot;Courier New&amp;quot;, monospace; font-size: 14px; color: rgb(156, 220, 254);&quot;&gt;x&lt;/span&gt;&lt;span style=&quot;background-color: rgb(31, 31, 31); color: rgb(204, 204, 204); font-family: Consolas, &amp;quot;Courier New&amp;quot;, monospace; font-size: 14px;&quot;&gt;, &lt;/span&gt;&lt;span style=&quot;background-color: rgb(31, 31, 31); font-family: Consolas, &amp;quot;Courier New&amp;quot;, monospace; font-size: 14px; color: rgb(156, 220, 254);&quot;&gt;y)&lt;/span&gt;" style="whiteSpace=wrap;html=1;" vertex="1" parent="1">
          <mxGeometry x="1640" y="465" width="210" height="60" as="geometry" />
        </mxCell>
        <mxCell id="TWOqxrJESDVWE0K2RaTB-36" value="" style="edgeStyle=orthogonalEdgeStyle;rounded=0;orthogonalLoop=1;jettySize=auto;html=1;" edge="1" parent="1" source="TWOqxrJESDVWE0K2RaTB-37" target="TWOqxrJESDVWE0K2RaTB-38">
          <mxGeometry relative="1" as="geometry" />
        </mxCell>
        <mxCell id="TWOqxrJESDVWE0K2RaTB-37" value="&lt;div style=&quot;color: rgb(204, 204, 204); background-color: rgb(31, 31, 31); font-family: Consolas, &amp;quot;Courier New&amp;quot;, monospace; font-size: 14px; line-height: 19px;&quot;&gt;loss &lt;span style=&quot;color: #d4d4d4;&quot;&gt;=&lt;/span&gt; &lt;span style=&quot;color: #4ec9b0;&quot;&gt;tf&lt;/span&gt;.reduce_mean(Logits,mask)&lt;/div&gt;" style="whiteSpace=wrap;html=1;" vertex="1" parent="1">
          <mxGeometry x="1480" y="605" width="280" height="60" as="geometry" />
        </mxCell>
        <mxCell id="TWOqxrJESDVWE0K2RaTB-38" value="&lt;div style=&quot;color: rgb(204, 204, 204); background-color: rgb(31, 31, 31); font-family: Consolas, &amp;quot;Courier New&amp;quot;, monospace; font-size: 14px; line-height: 19px;&quot;&gt;apply_gradients&lt;/div&gt;" style="whiteSpace=wrap;html=1;" vertex="1" parent="1">
          <mxGeometry x="1560" y="745" width="120" height="60" as="geometry" />
        </mxCell>
        <mxCell id="TWOqxrJESDVWE0K2RaTB-39" value="Call is a serial of functions to create layers" style="text;html=1;align=center;verticalAlign=middle;resizable=0;points=[];autosize=1;strokeColor=none;fillColor=none;" vertex="1" parent="1">
          <mxGeometry x="1770" y="560" width="250" height="30" as="geometry" />
        </mxCell>
      </root>
    </mxGraphModel>
  </diagram>
</mxfile>
